<?xml version="1.0" encoding="utf-8"?>
<!-- Generator: Adobe Illustrator 27.0.0, SVG Export Plug-In . SVG Version: 6.00 Build 0)  -->
<svg version="1.1" id="레이어_1" xmlns="http://www.w3.org/2000/svg" xmlns:xlink="http://www.w3.org/1999/xlink" x="0px"
	 y="0px" viewBox="0 0 1000 1468" style="enable-background:new 0 0 1000 1468;" xml:space="preserve">
<style type="text/css">
	.st0{fill:#A3A3A3;}
	.st1{fill:none;}
	.st2{fill:#FFFFFF;}
</style>
<rect x="0" class="st0" width="1000" height="1468"/>
<path class="st1" d="M0,0h1000v1468H0V0z"/>
<g>
	<path class="st2" d="M364.6,652.7c0-10.4,2.1-18.9,6.4-25.4c4.3-6.5,10.6-9.7,19-9.7c8.4,0,14.7,3.2,18.9,9.7
		c4.2,6.5,6.4,15,6.4,25.5c0,10.5-2.1,19-6.4,25.5c-4.3,6.5-10.6,9.7-18.9,9.7s-14.7-3.3-19-9.8
		C366.8,671.7,364.6,663.2,364.6,652.7z M401.4,672c2.6-4.8,4-11.2,4-19.2s-1.3-14.4-4-19.3c-2.6-4.9-6.4-7.3-11.4-7.3
		c-4.9,0-8.7,2.4-11.3,7.3c-2.6,4.9-4,11.3-4,19.3s1.3,14.4,4,19.2c2.6,4.8,6.4,7.2,11.3,7.2C395,679.3,398.8,676.9,401.4,672z
		 M442.5,709.7h-10v-99.6h10V709.7z M511.2,684.3h-47.3v-64.2h47.3V684.3z M501.3,676v-47.7h-27.4V676H501.3z M539.4,709.7h-9.9
		v-99.6h9.9V709.7z M617.1,678.5l-5.9,7.5c-5-3-10-7.2-14.8-12.8c-4.8-5.6-8-11-9.5-16.4c-1.4,5.9-4.4,11.7-9,17.5
		c-4.6,5.8-9.8,10.5-15.7,14l-6.3-7.3c7.7-4.6,14-10.9,18.7-18.8s7.1-16.5,7.1-25.9v-8h-22.3v-8.2h54.7v8.2H592v8
		c0,9.3,2.3,17.6,7,25C603.7,668.7,609.7,674.5,617.1,678.5z M627.7,610.1h10v99.6h-10V610.1z M256.8,769.6
		c4.8-4.3,10.7-6.5,17.9-6.5c7.1,0,13.1,2.1,17.9,6.4c4.8,4.3,7.2,9.9,7.2,16.7c0,6.8-2.4,12.3-7.2,16.5c-4.8,4.1-10.7,6.2-17.9,6.2
		c-7.1,0-13.1-2.1-17.9-6.2c-4.8-4.1-7.2-9.6-7.2-16.4C249.7,779.5,252.1,773.9,256.8,769.6z M274.7,771.6c-4.4,0-8,1.3-10.8,4
		c-2.9,2.7-4.3,6.2-4.3,10.5c0,4.3,1.4,7.8,4.3,10.4c2.9,2.6,6.5,3.9,10.8,3.9c4.4,0,7.9-1.3,10.7-3.9c2.8-2.6,4.2-6,4.2-10.3
		c0-4.4-1.4-7.9-4.1-10.6C282.8,772.9,279.2,771.6,274.7,771.6L274.7,771.6z M329.6,856.7h-63.4V817h9.9v11.9h43.5v-12.1h10V856.7
		L329.6,856.7z M319.5,848.6v-11.7h-43.5v11.7H319.5z M319.5,790h-15.7v-8.2h15.7v-23.5h10v53.2h-10V790L319.5,790z M435.3,845.3
		h-89v-8.2h39.3v-15.7H357v-32h57.3v-14.6h-57.6v-8.2h67.5v31h-57.3v15.6h60v8.2h-31.4v15.7h39.7L435.3,845.3L435.3,845.3z
		 M533,844.5h-89v-8.2h89V844.5z M522.3,815.3h-66.9v-47.2h66v8.2h-56.1v30.9h57L522.3,815.3L522.3,815.3z M593.7,766.6
		c8.8,0,15,5,18.7,14.9h13.4v-21.3h9.5V853h-9.5v-32h-13.7c-3.7,9.8-9.9,14.7-18.5,14.7c-7.1,0-12.5-3.2-16.1-9.6
		c-3.7-6.4-5.5-14.8-5.5-25.1c0-10.2,1.8-18.4,5.5-24.8C581.2,769.8,586.6,766.6,593.7,766.6L593.7,766.6z M602.5,820
		c2.1-4.7,3.1-11.1,3.1-19c0-7.9-1-14.2-3.1-18.9c-2.1-4.7-5-7.1-8.9-7.1c-3.8,0-6.8,2.4-8.8,7.1c-2,4.7-3,11-3,18.9
		c0,8,1,14.3,3,19c2,4.7,5,7.1,8.8,7.1C597.5,827.1,600.5,824.8,602.5,820z M625.8,789.9h-11.3c0.6,3.7,0.9,7.4,0.9,11.2
		c0,4.2-0.3,8.1-1,11.7h11.4L625.8,789.9L625.8,789.9z M654.5,857.9h-9.6v-99.6h9.6V857.9z M671.1,774.6v-8.2H725v8.2h-21.6v3.3
		c0,6.6,2.4,12.6,7.2,18c4.8,5.4,10.3,9,16.4,10.9l-5.5,8.1c-4.5-1.8-9-4.7-13.4-8.7c-4.4-4-7.6-8.2-9.6-12.6
		c-1.5,4.6-4.7,9.3-9.6,13.9c-4.9,4.6-10,8.1-15.2,10.3l-5.6-8c6.8-2.4,12.7-6.6,17.7-12.6c5-6,7.6-12.3,7.6-19v-3.5L671.1,774.6
		L671.1,774.6z M741.6,824.5c5.8,3.5,8.7,8.2,8.7,14.2c0,6-2.9,10.7-8.7,14.1c-5.8,3.4-14,5.1-24.6,5.1c-10.5,0-18.6-1.7-24.4-5.1
		c-5.8-3.4-8.7-8.1-8.7-14.1c0-6,2.9-10.7,8.7-14.2c5.8-3.5,14-5.2,24.4-5.2C727.6,819.3,735.7,821,741.6,824.5L741.6,824.5z
		 M717,827.6c-7.2,0-12.9,1-16.9,2.9c-4.1,1.9-6.1,4.7-6.1,8.2c0,3.5,2,6.2,6.1,8.2s9.7,2.9,16.9,2.9c7.3,0,13-1,17-2.9
		c4.1-1.9,6.1-4.7,6.1-8.2c0-3.5-2-6.2-6.1-8.2C730,828.6,724.3,827.6,717,827.6z M739.7,791.7h-18.4v-8.3h18.4v-25.1h10v61.8h-10
		V791.7z"/>
</g>
</svg>
