<svg xmlns="http://www.w3.org/2000/svg" xml:space="preserve" x="0px" y="0px" viewBox="0 0 1000 1468"><path fill="none" d="M0 0h1000v1468H0z"/><g fill="#B7B7B7"><path d="M364.625 652.718c0-10.412 2.145-18.867 6.433-25.365 4.289-6.498 10.609-9.747 18.96-9.747 8.352 0 14.652 3.249 18.904 9.747 4.25 6.498 6.376 14.991 6.376 25.479s-2.126 18.981-6.376 25.479c-4.252 6.498-10.552 9.747-18.904 9.747s-14.671-3.267-18.96-9.804c-4.288-6.536-6.433-15.049-6.433-25.536zm36.793 19.323c2.633-4.826 3.95-11.229 3.95-19.209s-1.317-14.402-3.95-19.266c-2.634-4.863-6.433-7.296-11.399-7.296-4.892 0-8.653 2.433-11.286 7.296-2.635 4.864-3.95 11.286-3.95 19.266 0 7.98 1.315 14.383 3.95 19.209 2.633 4.827 6.394 7.239 11.286 7.239 4.966 0 8.765-2.412 11.399-7.239zm41.081 37.677h-10.044v-99.636h10.044v99.636zM511.23 684.296h-47.289v-64.182h47.289v64.182zm-9.932-8.323v-47.652h-27.425v47.652h27.425zm38.147 33.745h-9.932v-99.636h9.932v99.636zM617.092 678.482l-5.869 7.524c-5.042-2.964-9.971-7.239-14.785-12.825-4.815-5.586-7.976-11.038-9.479-16.359-1.431 5.853-4.44 11.685-9.029 17.499-4.59 5.814-9.818 10.47-15.688 13.965l-6.32-7.296c7.749-4.635 13.995-10.887 18.735-18.753s7.11-16.51 7.11-25.935v-7.98H559.42v-8.208h54.737v8.208h-22.121v7.98c0 9.273 2.332 17.613 6.998 25.023 4.665 7.41 10.683 13.129 18.058 17.157zm10.609-68.4h10.045v99.636h-10.045v-99.636zM256.846 769.568c4.777-4.332 10.739-6.498 17.888-6.498 7.147 0 13.109 2.148 17.888 6.441 4.777 4.294 7.167 9.86 7.167 16.701 0 6.84-2.389 12.331-7.167 16.473-4.779 4.144-10.741 6.213-17.888 6.213-7.149 0-13.111-2.069-17.888-6.213-4.779-4.142-7.167-9.594-7.167-16.359 0-6.84 2.388-12.426 7.167-16.758zm17.888 2.051c-4.365 0-7.976 1.331-10.834 3.99-2.86 2.661-4.289 6.156-4.289 10.488s1.428 7.791 4.289 10.374c2.858 2.584 6.47 3.876 10.834 3.876 4.363 0 7.937-1.292 10.722-3.876 2.783-2.583 4.176-6.003 4.176-10.26 0-4.407-1.374-7.941-4.119-10.603-2.748-2.658-6.34-3.989-10.779-3.989zm54.85 85.044h-63.428v-39.672h9.932v11.856h43.451v-12.084h10.045v39.9zm-10.044-8.093v-11.742h-43.451v11.742h43.451zm0-58.596h-15.688v-8.208h15.688v-23.484h10.045v53.238H319.54v-21.546zM435.333 845.264h-89.047v-8.208h39.275v-15.732h-28.554V789.29h57.333v-14.592h-57.559v-8.208h67.49v31.008h-57.333v15.618h60.042v8.208h-31.375v15.732h39.727v8.208zM532.956 844.466h-89.047v-8.208h89.047v8.208zm-10.609-29.185H455.42v-47.195h66.023v8.208h-56.092v30.894h56.995v8.093zM593.672 766.604c8.803 0 15.047 4.979 18.734 14.934h13.431V760.22h9.48v92.796h-9.48v-32.034h-13.656c-3.688 9.804-9.857 14.706-18.509 14.706-7.073 0-12.454-3.21-16.14-9.633-3.687-6.422-5.529-14.801-5.529-25.137 0-10.184 1.843-18.449 5.529-24.796 3.686-6.344 9.067-9.518 16.14-9.518zm8.86 53.409c2.068-4.749 3.104-11.076 3.104-18.981 0-7.903-1.035-14.211-3.104-18.924-2.07-4.711-5.022-7.068-8.859-7.068-3.838 0-6.771 2.357-8.804 7.068-2.031 4.713-3.047 11.021-3.047 18.924 0 7.98 1.016 14.327 3.047 19.038 2.032 4.713 4.966 7.068 8.804 7.068 3.836 0 6.788-2.375 8.859-7.125zm23.305-30.153h-11.286a71.36 71.36 0 0 1 .903 11.172c0 4.181-.339 8.095-1.017 11.742h11.399V789.86zm28.666 68.058h-9.593v-99.637h9.593v99.637zM671.093 774.584v-8.208h53.947v8.208h-21.557v3.306c0 6.612 2.407 12.597 7.224 17.955 4.813 5.357 10.27 8.988 16.364 10.887l-5.53 8.094c-4.515-1.823-8.991-4.73-13.431-8.721s-7.637-8.188-9.593-12.597c-1.506 4.637-4.703 9.272-9.593 13.907-4.892 4.637-9.971 8.057-15.236 10.261l-5.643-7.98c6.771-2.432 12.677-6.63 17.719-12.597 5.04-5.966 7.562-12.293 7.562-18.981v-3.533h-22.233zm70.482 49.875c5.829 3.459 8.746 8.189 8.746 14.192 0 6.005-2.897 10.716-8.69 14.136-5.794 3.42-13.994 5.131-24.604 5.131-10.459 0-18.604-1.711-24.434-5.131-5.832-3.42-8.747-8.131-8.747-14.136 0-6.003 2.915-10.733 8.747-14.192 5.83-3.458 13.975-5.188 24.434-5.188 10.533.001 18.716 1.73 24.548 5.188zm-24.548 3.135c-7.223 0-12.865.969-16.929 2.907-4.063 1.938-6.095 4.655-6.095 8.15 0 3.497 2.032 6.213 6.095 8.151 4.063 1.938 9.706 2.907 16.929 2.907 7.298 0 12.979-.97 17.042-2.907 4.063-1.938 6.095-4.654 6.095-8.151 0-3.495-2.031-6.213-6.095-8.15-4.063-1.938-9.744-2.907-17.042-2.907zm22.685-35.91h-18.396v-8.322h18.396v-25.08h10.044v61.788h-10.044v-28.386z"/></g></svg>